<?xml version="1.0" encoding="utf-8"?>
<!-- Generator: Adobe Illustrator 25.4.1, SVG Export Plug-In . SVG Version: 6.00 Build 0)  -->
<svg version="1.1" id="Calque_1" xmlns="http://www.w3.org/2000/svg" xmlns:xlink="http://www.w3.org/1999/xlink" x="0px" y="0px"
	 viewBox="0 0 841.9 595.3" style="enable-background:new 0 0 841.9 595.3;" xml:space="preserve">
<style type="text/css">
	.st0{fill:#000000;}
	.st1{fill:#CAAC6B;}
</style>
<g>
	<g>
		<path class="st0" d="M321.6,562.6v-23.1h10c1,0,2,0.2,2.9,0.7c0.9,0.4,1.6,1,2.3,1.8c0.6,0.7,1.1,1.6,1.5,2.5
			c0.4,0.9,0.5,1.9,0.5,2.8c0,1.5-0.4,2.9-1.1,4.1c-0.7,1.2-1.7,2.1-3,2.7l5.3,8.7h-5l-4.8-7.7H326v7.7H321.6z M326,550.9h5.5
			c0.4,0,0.8-0.1,1.1-0.3c0.4-0.2,0.7-0.5,0.9-0.8c0.3-0.3,0.5-0.7,0.6-1.2c0.1-0.5,0.2-0.9,0.2-1.5c0-0.5-0.1-1-0.3-1.5
			c-0.2-0.5-0.4-0.9-0.7-1.2c-0.3-0.3-0.6-0.6-1-0.8s-0.7-0.3-1.1-0.3H326V550.9z"/>
		<path class="st0" d="M358.8,558.6v3.9h-15.7v-23.1h15.4v3.9h-11v5.6h9.5v3.6h-9.5v6H358.8z"/>
		<path class="st0" d="M360.1,562.6l8.9-23.1h3.6l8.9,23.1h-4.7l-2.1-5.8h-7.9l-2.1,5.8H360.1z M370.8,544.3l-3.3,9.3h6.4
			L370.8,544.3z"/>
		<path class="st0" d="M383.9,562.6v-23.1h4.4v19.2h11.5v3.9H383.9z"/>
		<path class="st0" d="M425.1,558.6v3.9h-15.7v-23.1h15.4v3.9h-11v5.6h9.5v3.6h-9.5v6H425.1z"/>
		<path class="st0" d="M441.9,545.5c-0.1-0.2-0.4-0.4-0.8-0.6c-0.4-0.3-0.9-0.5-1.4-0.8c-0.6-0.2-1.2-0.5-1.8-0.6
			c-0.7-0.2-1.3-0.3-2-0.3c-1.2,0-2.1,0.2-2.7,0.7c-0.6,0.5-0.9,1.1-0.9,1.9c0,0.5,0.1,0.9,0.3,1.2c0.2,0.3,0.5,0.6,1,0.8
			c0.4,0.2,1,0.5,1.6,0.7c0.6,0.2,1.4,0.4,2.2,0.6c1.1,0.3,2.1,0.6,3,1c0.9,0.3,1.7,0.8,2.3,1.3c0.6,0.5,1.1,1.1,1.5,1.9
			c0.3,0.7,0.5,1.6,0.5,2.7c0,1.2-0.2,2.3-0.7,3.2c-0.5,0.9-1.1,1.6-1.8,2.1c-0.8,0.5-1.7,0.9-2.7,1.2c-1,0.2-2.1,0.4-3.2,0.4
			c-1.7,0-3.4-0.3-5-0.8c-1.7-0.5-3.1-1.3-4.5-2.2l1.9-3.9c0.2,0.2,0.5,0.5,1,0.8c0.5,0.3,1.1,0.6,1.8,0.9c0.7,0.3,1.4,0.6,2.3,0.8
			c0.8,0.2,1.7,0.3,2.6,0.3c2.4,0,3.6-0.8,3.6-2.4c0-0.5-0.1-1-0.4-1.3c-0.3-0.3-0.7-0.7-1.2-0.9c-0.5-0.3-1.1-0.5-1.8-0.7
			c-0.7-0.2-1.5-0.4-2.4-0.7c-1.1-0.3-2-0.6-2.8-1c-0.8-0.4-1.5-0.8-2-1.3c-0.5-0.5-0.9-1-1.2-1.7c-0.3-0.7-0.4-1.4-0.4-2.3
			c0-1.2,0.2-2.2,0.6-3.1c0.4-0.9,1-1.7,1.8-2.3c0.8-0.6,1.6-1.1,2.6-1.4c1-0.3,2.1-0.5,3.2-0.5c1.6,0,3.1,0.3,4.4,0.8
			c1.3,0.5,2.5,1.1,3.5,1.8L441.9,545.5z"/>
		<path class="st0" d="M464.8,543.4h-7.2v19.2h-4.4v-19.2H446v-3.9h18.8V543.4z"/>
		<path class="st0" d="M463.3,562.6l8.9-23.1h3.6l8.9,23.1H480l-2.1-5.8H470l-2.1,5.8H463.3z M474,544.3l-3.3,9.3h6.4L474,544.3z"/>
		<path class="st0" d="M501.9,543.4h-7.2v19.2h-4.4v-19.2h-7.2v-3.9h18.8V543.4z"/>
		<path class="st0" d="M520.5,558.6v3.9h-15.7v-23.1h15.4v3.9h-11v5.6h9.5v3.6h-9.5v6H520.5z"/>
	</g>
	<g>
		<g>
			<path class="st0" d="M328.9,477c-0.4-0.4-1-0.9-1.9-1.5c-0.9-0.6-2.1-1.2-3.4-1.8c-1.3-0.6-2.8-1.1-4.4-1.5
				c-1.6-0.4-3.2-0.6-4.8-0.6c-2.9,0-5,0.5-6.4,1.6c-1.4,1.1-2.1,2.6-2.1,4.6c0,1.1,0.3,2.1,0.8,2.8c0.5,0.7,1.3,1.4,2.3,2
				c1,0.6,2.3,1.1,3.8,1.5c1.5,0.5,3.3,1,5.3,1.5c2.6,0.7,5,1.5,7.2,2.3c2.1,0.8,4,1.9,5.5,3.1c1.5,1.2,2.6,2.7,3.5,4.5
				c0.8,1.7,1.2,3.9,1.2,6.4c0,2.9-0.5,5.5-1.6,7.5c-1.1,2.1-2.5,3.8-4.4,5.1c-1.8,1.3-3.9,2.2-6.4,2.8c-2.4,0.6-5,0.9-7.6,0.9
				c-4,0-8-0.6-12-1.9c-3.9-1.2-7.5-3-10.6-5.3l4.6-9.2c0.5,0.5,1.3,1.1,2.5,1.8c1.2,0.7,2.6,1.5,4.2,2.2c1.6,0.7,3.4,1.4,5.4,1.9
				c2,0.5,4,0.8,6.1,0.8c5.8,0,8.6-1.9,8.6-5.7c0-1.2-0.3-2.3-1-3.1c-0.7-0.8-1.6-1.5-2.8-2.2s-2.7-1.2-4.4-1.7
				c-1.7-0.5-3.6-1.1-5.8-1.6c-2.6-0.7-4.8-1.5-6.7-2.4c-1.9-0.9-3.5-1.8-4.7-3c-1.3-1.1-2.2-2.5-2.8-4c-0.6-1.5-0.9-3.4-0.9-5.5
				c0-2.8,0.5-5.3,1.5-7.4c1-2.2,2.4-4,4.2-5.4c1.8-1.4,3.9-2.5,6.3-3.3c2.4-0.7,4.9-1.1,7.7-1.1c3.8,0,7.3,0.6,10.5,1.8
				c3.2,1.2,6,2.6,8.3,4.3L328.9,477z"/>
			<path class="st0" d="M343.4,517.6v-55h22.8c2.5,0,4.8,0.5,6.9,1.6c2.1,1.1,3.9,2.5,5.4,4.2c1.5,1.7,2.7,3.7,3.6,5.9
				c0.9,2.2,1.3,4.4,1.3,6.6c0,2.3-0.4,4.6-1.2,6.8c-0.8,2.2-1.9,4.1-3.4,5.8c-1.5,1.7-3.2,3.1-5.3,4.1c-2.1,1-4.3,1.5-6.8,1.5
				h-12.7v18.4H343.4z M353.8,489.8H366c1.9,0,3.5-0.8,4.8-2.4c1.3-1.6,1.9-3.8,1.9-6.5c0-1.4-0.2-2.6-0.6-3.8
				c-0.4-1.1-0.9-2.1-1.6-2.8c-0.7-0.8-1.4-1.4-2.3-1.7c-0.9-0.4-1.8-0.6-2.7-0.6h-11.7V489.8z"/>
			<path class="st0" d="M381.1,517.6l21.2-55h8.5l21.2,55H421l-4.9-13.7h-18.9l-4.9,13.7H381.1z M406.6,474.1l-7.7,22.2h15.2
				L406.6,474.1z"/>
			<path class="st0" d="M469.3,477c-0.4-0.4-1-0.9-1.9-1.5c-0.9-0.6-2.1-1.2-3.4-1.8c-1.3-0.6-2.8-1.1-4.4-1.5
				c-1.6-0.4-3.2-0.6-4.8-0.6c-2.9,0-5,0.5-6.4,1.6c-1.4,1.1-2.1,2.6-2.1,4.6c0,1.1,0.3,2.1,0.8,2.8c0.5,0.7,1.3,1.4,2.3,2
				c1,0.6,2.3,1.1,3.8,1.5c1.5,0.5,3.3,1,5.3,1.5c2.6,0.7,5,1.5,7.2,2.3c2.1,0.8,4,1.9,5.5,3.1c1.5,1.2,2.6,2.7,3.5,4.5
				c0.8,1.7,1.2,3.9,1.2,6.4c0,2.9-0.5,5.5-1.6,7.5c-1.1,2.1-2.5,3.8-4.4,5.1c-1.8,1.3-3.9,2.2-6.4,2.8c-2.4,0.6-5,0.9-7.6,0.9
				c-4,0-8-0.6-12-1.9c-3.9-1.2-7.5-3-10.6-5.3l4.6-9.2c0.5,0.5,1.3,1.1,2.5,1.8c1.2,0.7,2.6,1.5,4.2,2.2c1.6,0.7,3.4,1.4,5.4,1.9
				c2,0.5,4,0.8,6.1,0.8c5.8,0,8.6-1.9,8.6-5.7c0-1.2-0.3-2.3-1-3.1c-0.7-0.8-1.6-1.5-2.8-2.2s-2.7-1.2-4.4-1.7
				c-1.7-0.5-3.6-1.1-5.8-1.6c-2.6-0.7-4.8-1.5-6.7-2.4c-1.9-0.9-3.5-1.8-4.7-3c-1.3-1.1-2.2-2.5-2.8-4c-0.6-1.5-0.9-3.4-0.9-5.5
				c0-2.8,0.5-5.3,1.5-7.4c1-2.2,2.4-4,4.2-5.4c1.8-1.4,3.9-2.5,6.3-3.3c2.4-0.7,4.9-1.1,7.7-1.1c3.8,0,7.3,0.6,10.5,1.8
				c3.2,1.2,6,2.6,8.3,4.3L469.3,477z"/>
			<path class="st0" d="M483.8,517.6v-54.9h10.5v54.9H483.8z"/>
			<path class="st0" d="M502.3,489.7c0-3.4,0.6-6.7,1.7-9.9c1.2-3.3,2.8-6.2,5-8.8c2.2-2.6,4.9-4.7,8.1-6.3
				c3.2-1.6,6.8-2.4,10.9-2.4c4.8,0,9,1.1,12.5,3.3c3.5,2.2,6.1,5.1,7.8,8.7l-8,5.7c-0.6-1.5-1.4-2.9-2.4-3.9c-1-1.1-2-1.9-3.1-2.5
				c-1.1-0.6-2.3-1.1-3.5-1.4c-1.2-0.3-2.4-0.4-3.5-0.4c-2.5,0-4.7,0.5-6.5,1.6c-1.9,1.1-3.4,2.5-4.7,4.2c-1.2,1.7-2.2,3.7-2.8,5.9
				c-0.6,2.2-0.9,4.4-0.9,6.5c0,2.4,0.4,4.8,1.1,7c0.7,2.2,1.8,4.2,3.1,5.9c1.3,1.7,2.9,3.1,4.8,4.1c1.9,1,3.9,1.5,6.1,1.5
				c1.2,0,2.4-0.2,3.6-0.5c1.2-0.3,2.4-0.8,3.5-1.5c1.1-0.7,2.2-1.5,3.1-2.6c1-1.1,1.7-2.3,2.4-3.8l8.6,5c-0.8,2.1-2,3.9-3.5,5.5
				c-1.5,1.6-3.3,2.9-5.3,4c-2,1.1-4,1.9-6.2,2.5c-2.2,0.6-4.3,0.9-6.4,0.9c-3.7,0-7.2-0.8-10.3-2.5c-3.1-1.7-5.8-3.8-8-6.5
				c-2.3-2.7-4-5.7-5.2-9.1C503,496.7,502.3,493.2,502.3,489.7z"/>
		</g>
		<polygon class="st0" points="524.4,449.1 520.2,456.9 523.5,460 534.9,449.1 		"/>
	</g>
	<g>
		<rect x="366.8" y="228.6" class="st1" width="9.4" height="14.7"/>
		<rect x="351.5" y="228.6" class="st1" width="9.4" height="14.7"/>
		<path class="st1" d="M307.3,259.1v14.2c1.4-1.4,3.4-3.2,6.1-4.8c2.6-1.5,5-2.4,6.8-2.9v-19.1l46.5-47.5l17.1,16.7v-8.3H397v21.1
			l38.1,37.1V160.6l8.1-6.4v-11.9l-20.7,17.3v12.9c0,0-44.2-13-60.5-40.8c-8.3-14.2-12.1-31.4-6.3-47.3
			c10.4-28.4,41.1-41.7,69.5-36.9c29.3,5,54.9,23.8,74.5,45.3c4.1,4.5,8,9.2,11.7,14c2,2.5,3.9,5.1,5.7,7.8c1.1,1.6,5.3,5.9,5.3,7.7
			v-69c0,0-100.6-63.7-183.4-7.5c-16.7,11.3-29.5,27.7-35.7,46.9c-5.3,16.2-6.9,37,3.2,60.5c0,0,10.3,29.2,44.9,50.7l-54.9,55.3
			H307.3z"/>
		<path class="st1" d="M501.5,219.6v-71.7l-50.4-42V280h10V126.1l27.9,21.8v146.7H369.2l0,0c-4.1-14.8-17.7-25.8-33.8-25.8
			c-19.4,0-35.1,15.7-35.1,35.1s15.7,35.1,35.1,35.1c17.4,0,31.9-12.7,34.6-29.3h81.2v18.3h2.1v-2.4h5.2v2.4h2.2v-8h10.4v8h2.1v-2.4
			h5.7v2.4h2.6v-18.3h7.4v15.9c0,5.9-1.2,11.8-3.7,17.2c-11,24.5-35.3,43.4-87.4,43.4c-59,0-105.7-59.4-105.7-59.4v51.4
			c0,0,54.3,32.3,125.7,29C489.1,403.8,550,352.9,550,301S501.5,219.6,501.5,219.6z M335.9,326.7c-12.9,0-23.4-10.5-23.4-23.4
			c0-12.9,10.5-23.4,23.4-23.4c12.9,0,23.4,10.5,23.4,23.4C359.2,316.3,348.8,326.7,335.9,326.7z"/>
		<polygon class="st1" points="470.1,147.9 470.1,280 481,280 481,157.5 		"/>
	</g>
</g>
</svg>
