<?xml version="1.0" encoding="utf-8"?>
<!-- Generator: Adobe Illustrator 25.4.1, SVG Export Plug-In . SVG Version: 6.00 Build 0)  -->
<svg version="1.1" id="Calque_1" xmlns="http://www.w3.org/2000/svg" xmlns:xlink="http://www.w3.org/1999/xlink" x="0px" y="0px"
	 viewBox="0 0 600 300" style="enable-background:new 0 0 841.9 595.3;" xml:space="preserve">
<style type="text/css">
	.st0{fill:#FFFFFF;}
	.st1{fill:#CAAC6B;}
</style>
<g>
	<g>
		<rect x="366.8" y="228.6" class="st1" width="9.4" height="14.7"/>
		<rect x="352.5" y="228.6" class="st1" width="9.4" height="14.7"/>
		<path class="st1" d="M307.3,259.1v14.2c1.4-1.4,3.4-3.2,6.1-4.8c2.6-1.5,5-2.4,6.8-2.9v-19.1l46.5-47.5l17.1,16.7v-8.3H397v21.1
			l38.1,37.1V160.6l8.1-6.4v-11.9l-20.7,17.3v12.9c0,0-44.2-13-60.5-40.8c-8.3-14.2-12.1-31.4-6.3-47.3
			c10.4-28.4,41.1-41.7,69.5-36.9c29.3,5,54.9,23.8,74.5,45.3c4.1,4.5,8,9.2,11.7,14c2,2.5,3.9,5.1,5.7,7.8c1.1,1.6,5.3,5.9,5.3,7.7
			v-69c0,0-100.6-63.7-183.4-7.5c-16.7,11.3-29.5,27.7-35.7,46.9c-5.3,16.2-6.9,37,3.2,60.5c0,0,10.3,29.2,44.9,50.7l-54.9,55.3
			H307.3z"/>
		<path class="st1" d="M501.5,219.6v-71.7l-50.4-42V280h10V126.1l27.9,21.8v146.7H369.2l0,0c-4.1-14.8-17.7-25.8-33.8-25.8
			c-19.4,0-35.1,15.7-35.1,35.1s15.7,35.1,35.1,35.1c17.4,0,31.9-12.7,34.6-29.3h81.2v18.3h2.1v-2.4h5.2v2.4h2.2v-8h10.4v8h2.1v-2.4
			h5.7v2.4h2.6v-18.3h7.4v15.9c0,5.9-1.2,11.8-3.7,17.2c-11,24.5-35.3,43.4-87.4,43.4c-59,0-105.7-59.4-105.7-59.4v51.4
			c0,0,54.3,32.3,125.7,29C489.1,403.8,550,352.9,550,301S501.5,219.6,501.5,219.6z M335.9,326.7c-12.9,0-23.4-10.5-23.4-23.4
			c0-12.9,10.5-23.4,23.4-23.4c12.9,0,23.4,10.5,23.4,23.4C359.2,316.3,348.8,326.7,335.9,326.7z"/>
		<polygon class="st1" points="470.1,147.9 470.1,280 481,280 481,157.5 		"/>
	</g>
</g>
</svg>
